<?xml version="1.0" encoding="UTF-8" standalone="no"?>
<!DOCTYPE svg PUBLIC "-//W3C//DTD SVG 1.1//EN" "http://www.w3.org/Graphics/SVG/1.1/DTD/svg11.dtd">
<svg width="100%" height="100%" viewBox="0 0 912 914" version="1.1" xmlns="http://www.w3.org/2000/svg" xmlns:xlink="http://www.w3.org/1999/xlink" xml:space="preserve" xmlns:serif="http://www.serif.com/" style="fill-rule:evenodd;clip-rule:evenodd;stroke-linecap:round;stroke-linejoin:round;stroke-miterlimit:1.5;">
    <g id="Artboard1" transform="matrix(1,0,0,1,-696.846,-1148)">
        <clipPath id="_clip1">
            <rect x="696.846" y="1148" width="911.546" height="913.184"/>
        </clipPath>
        <g clip-path="url(#_clip1)">
            <rect x="0" y="0" width="2480.32" height="3507.87" style="fill:none;"/>
            <path d="M911.904,1363.76L908.144,1353.93L922.362,1345.9L950.989,1346.68L981.711,1351.41L1010.14,1345.68L1027.3,1349.58L1028.47,1370.37L1019.59,1410.47L1014.59,1461.14L1014.24,1499.98L998.711,1546.54L1155.49,1532.01L1168.4,1511.7L1168.62,1459.05L1166.66,1363.06L1164.74,1279.6L1177.57,1286.03L1177.57,1264.83L1169.59,1237.17L1177.57,1206.36L1177.57,1179.9L1201.07,1171.22L1228.83,1178.7L1250.11,1169.68L1255.07,1184.47L1225.14,1212.83L1206.67,1239.5L1210.85,1272.28L1216.91,1287.12L1225.21,1337.81L1229.88,1386.46L1230.51,1453.29L1240.16,1487.55L1240.16,1617.14L1248.28,1654.28L1263.34,1693.96L1281.77,1753.94L1301.69,1789.43L1300.63,1824.85L1310.5,1857.27L1318.78,1866.27L1313.83,1880.34L1322.65,1910.67L1327.13,1940.36L1326.24,2010.77L1298.36,2016.07L1287.63,1923.29L1276.82,1890.63L1265.64,1880.33L1258,1844.09L1240.16,1833.07L1240.16,1843.83L1230.29,1858.19L1222.78,1871.52L1213.53,1882.65L1194.19,1883.87L1177.57,1871.98L1177.57,1857.82L1163.29,1846.68L1138.32,1848.44L1122,1867.49L1105.92,1895.15L1103.85,1912.37L1084.97,1944.05L1070.65,1989.47L1091.57,2009.92L1051.77,2007.92L1049.81,1983.84L1055.68,1930.75L1064.32,1903.69L1068.31,1877.05L1080.86,1849.68L1099.65,1801.44L1116.48,1777.33L1122.76,1744.2L1123.83,1713.3L1119.99,1650.81L1111.1,1638.47L1086.96,1638.97L1090.5,1623.7L967.207,1609.76L943.661,1599.82L932.732,1579.64L939.754,1545.7L959.736,1479.38L979.201,1412.2L978.019,1397.02L964.915,1381.96L911.904,1363.76Z"/>
            <path d="M911.904,1363.76L964.915,1381.96L978.019,1397.02L979.201,1412.2L959.736,1479.38L939.754,1545.7L932.732,1579.64L943.661,1599.82L967.207,1609.76L1090.5,1623.7L1086.96,1638.97L1111.1,1638.47L1119.99,1650.81L1123.83,1713.3L1122.76,1744.2L1116.48,1777.33L1099.65,1801.44L1080.86,1849.68L1068.31,1877.05L1064.32,1903.69L1055.68,1930.75L1049.81,1983.84L1051.77,2007.92L1091.57,2009.92L1070.65,1989.47L1084.97,1944.05L1103.85,1912.37L1105.92,1895.15L1122,1867.49L1138.32,1848.44L1163.29,1846.68L1177.57,1857.82L1177.57,1871.98L1194.19,1883.87L1213.53,1882.65L1222.78,1871.52L1230.29,1858.19L1240.16,1843.83L1240.16,1833.07L1258,1844.09L1265.64,1880.33L1276.82,1890.63L1287.63,1923.29L1298.36,2016.07L1326.24,2010.77L1327.13,1940.36L1322.65,1910.67L1313.83,1880.34L1318.78,1866.27L1310.5,1857.27L1300.63,1824.85L1301.69,1789.43L1281.77,1753.94L1263.34,1693.96L1248.28,1654.28L1240.16,1617.14L1240.16,1487.55L1230.51,1453.29L1229.88,1386.46L1225.21,1337.81L1216.91,1287.12L1210.85,1272.28L1206.67,1239.5L1225.14,1212.83L1255.07,1184.47L1250.11,1169.68L1228.83,1178.7L1201.07,1171.22L1177.57,1179.9L1177.57,1206.36L1169.59,1237.17L1177.57,1264.83L1177.57,1286.03L1164.74,1279.6L1166.66,1363.06L1168.62,1459.05L1168.4,1511.7L1155.49,1532.01L998.711,1546.54L1014.24,1499.98L1014.59,1461.14L1019.59,1410.47L1028.47,1370.37L1027.3,1349.58L1010.14,1345.68L981.711,1351.41L950.989,1346.68L922.362,1345.9L908.144,1353.93L911.904,1363.76Z" style="fill:none;stroke:black;stroke-width:18.75px;"/>
        </g>
    </g>
</svg>
